<svg width="327" height="279" viewBox="0 0 327 279" fill="none" xmlns="http://www.w3.org/2000/svg">
<rect width="327" height="279" rx="8" fill="#2A2A2D"/>
<rect x="173" y="214" width="125" height="37" rx="6" fill="#008F7F"/>
<path d="M221.228 227.27C222.264 227.27 223.169 227.471 223.944 227.872C224.728 228.264 225.33 228.833 225.75 229.58C226.179 230.317 226.394 231.181 226.394 232.17C226.394 233.159 226.179 234.018 225.75 234.746C225.33 235.474 224.728 236.034 223.944 236.426C223.169 236.809 222.264 237 221.228 237H218.05V227.27H221.228ZM221.228 235.698C222.367 235.698 223.239 235.39 223.846 234.774C224.453 234.158 224.756 233.29 224.756 232.17C224.756 231.041 224.453 230.159 223.846 229.524C223.239 228.889 222.367 228.572 221.228 228.572H219.646V235.698H221.228ZM231.157 237.126C230.429 237.126 229.771 236.963 229.183 236.636C228.595 236.3 228.133 235.833 227.797 235.236C227.461 234.629 227.293 233.929 227.293 233.136C227.293 232.352 227.465 231.657 227.811 231.05C228.156 230.443 228.627 229.977 229.225 229.65C229.822 229.323 230.489 229.16 231.227 229.16C231.964 229.16 232.631 229.323 233.229 229.65C233.826 229.977 234.297 230.443 234.643 231.05C234.988 231.657 235.161 232.352 235.161 233.136C235.161 233.92 234.983 234.615 234.629 235.222C234.274 235.829 233.789 236.3 233.173 236.636C232.566 236.963 231.894 237.126 231.157 237.126ZM231.157 235.74C231.567 235.74 231.95 235.642 232.305 235.446C232.669 235.25 232.963 234.956 233.187 234.564C233.411 234.172 233.523 233.696 233.523 233.136C233.523 232.576 233.415 232.105 233.201 231.722C232.986 231.33 232.701 231.036 232.347 230.84C231.992 230.644 231.609 230.546 231.199 230.546C230.788 230.546 230.405 230.644 230.051 230.84C229.705 231.036 229.43 231.33 229.225 231.722C229.019 232.105 228.917 232.576 228.917 233.136C228.917 233.967 229.127 234.611 229.547 235.068C229.976 235.516 230.513 235.74 231.157 235.74ZM240.466 229.16C241.072 229.16 241.614 229.286 242.09 229.538C242.575 229.79 242.953 230.163 243.224 230.658C243.494 231.153 243.63 231.75 243.63 232.45V237H242.048V232.688C242.048 231.997 241.875 231.47 241.53 231.106C241.184 230.733 240.713 230.546 240.116 230.546C239.518 230.546 239.042 230.733 238.688 231.106C238.342 231.47 238.17 231.997 238.17 232.688V237H236.574V229.286H238.17V230.168C238.431 229.851 238.762 229.603 239.164 229.426C239.574 229.249 240.008 229.16 240.466 229.16ZM252.57 232.954C252.57 233.243 252.552 233.505 252.514 233.738H246.62C246.667 234.354 246.896 234.849 247.306 235.222C247.717 235.595 248.221 235.782 248.818 235.782C249.677 235.782 250.284 235.423 250.638 234.704H252.36C252.127 235.413 251.702 235.997 251.086 236.454C250.48 236.902 249.724 237.126 248.818 237.126C248.081 237.126 247.418 236.963 246.83 236.636C246.252 236.3 245.794 235.833 245.458 235.236C245.132 234.629 244.968 233.929 244.968 233.136C244.968 232.343 245.127 231.647 245.444 231.05C245.771 230.443 246.224 229.977 246.802 229.65C247.39 229.323 248.062 229.16 248.818 229.16C249.546 229.16 250.195 229.319 250.764 229.636C251.334 229.953 251.777 230.401 252.094 230.98C252.412 231.549 252.57 232.207 252.57 232.954ZM250.904 232.45C250.895 231.862 250.685 231.391 250.274 231.036C249.864 230.681 249.355 230.504 248.748 230.504C248.198 230.504 247.726 230.681 247.334 231.036C246.942 231.381 246.709 231.853 246.634 232.45H250.904Z" fill="#FDFDFD"/>
<rect opacity="0.3" x="28" y="214" width="125" height="37" rx="6" fill="#008F7F"/>
<path d="M65.518 232.114C65.518 231.162 65.7373 230.308 66.176 229.552C66.624 228.796 67.226 228.208 67.982 227.788C68.7473 227.359 69.5827 227.144 70.488 227.144C71.524 227.144 72.4433 227.401 73.246 227.914C74.058 228.418 74.646 229.137 75.01 230.07H73.092C72.84 229.557 72.49 229.174 72.042 228.922C71.594 228.67 71.076 228.544 70.488 228.544C69.844 228.544 69.27 228.689 68.766 228.978C68.262 229.267 67.8653 229.683 67.576 230.224C67.296 230.765 67.156 231.395 67.156 232.114C67.156 232.833 67.296 233.463 67.576 234.004C67.8653 234.545 68.262 234.965 68.766 235.264C69.27 235.553 69.844 235.698 70.488 235.698C71.076 235.698 71.594 235.572 72.042 235.32C72.49 235.068 72.84 234.685 73.092 234.172H75.01C74.646 235.105 74.058 235.824 73.246 236.328C72.4433 236.832 71.524 237.084 70.488 237.084C69.5733 237.084 68.738 236.874 67.982 236.454C67.226 236.025 66.624 235.432 66.176 234.676C65.7373 233.92 65.518 233.066 65.518 232.114ZM76.1811 233.108C76.1811 232.333 76.3398 231.647 76.6571 231.05C76.9838 230.453 77.4225 229.991 77.9731 229.664C78.5331 229.328 79.1491 229.16 79.8211 229.16C80.4278 229.16 80.9551 229.281 81.4031 229.524C81.8605 229.757 82.2245 230.051 82.4951 230.406V229.286H84.1051V237H82.4951V235.852C82.2245 236.216 81.8558 236.519 81.3891 236.762C80.9225 237.005 80.3905 237.126 79.7931 237.126C79.1305 237.126 78.5238 236.958 77.9731 236.622C77.4225 236.277 76.9838 235.801 76.6571 235.194C76.3398 234.578 76.1811 233.883 76.1811 233.108ZM82.4951 233.136C82.4951 232.604 82.3831 232.142 82.1591 231.75C81.9445 231.358 81.6598 231.059 81.3051 230.854C80.9505 230.649 80.5678 230.546 80.1571 230.546C79.7465 230.546 79.3638 230.649 79.0091 230.854C78.6545 231.05 78.3651 231.344 78.1411 231.736C77.9265 232.119 77.8191 232.576 77.8191 233.108C77.8191 233.64 77.9265 234.107 78.1411 234.508C78.3651 234.909 78.6545 235.217 79.0091 235.432C79.3731 235.637 79.7558 235.74 80.1571 235.74C80.5678 235.74 80.9505 235.637 81.3051 235.432C81.6598 235.227 81.9445 234.928 82.1591 234.536C82.3831 234.135 82.4951 233.668 82.4951 233.136ZM89.9284 229.16C90.5351 229.16 91.0764 229.286 91.5524 229.538C92.0377 229.79 92.4157 230.163 92.6864 230.658C92.9571 231.153 93.0924 231.75 93.0924 232.45V237H91.5104V232.688C91.5104 231.997 91.3377 231.47 90.9924 231.106C90.6471 230.733 90.1757 230.546 89.5784 230.546C88.9811 230.546 88.5051 230.733 88.1504 231.106C87.8051 231.47 87.6324 231.997 87.6324 232.688V237H86.0364V229.286H87.6324V230.168C87.8937 229.851 88.2251 229.603 88.6264 229.426C89.0371 229.249 89.4711 229.16 89.9284 229.16ZM94.4312 233.136C94.4312 232.343 94.5899 231.647 94.9072 231.05C95.2339 230.443 95.6819 229.977 96.2512 229.65C96.8205 229.323 97.4739 229.16 98.2112 229.16C99.1445 229.16 99.9145 229.384 100.521 229.832C101.137 230.271 101.553 230.901 101.767 231.722H100.045C99.9052 231.339 99.6812 231.041 99.3732 230.826C99.0652 230.611 98.6779 230.504 98.2112 230.504C97.5579 230.504 97.0352 230.737 96.6432 231.204C96.2605 231.661 96.0692 232.305 96.0692 233.136C96.0692 233.967 96.2605 234.615 96.6432 235.082C97.0352 235.549 97.5579 235.782 98.2112 235.782C99.1352 235.782 99.7465 235.376 100.045 234.564H101.767C101.543 235.348 101.123 235.973 100.507 236.44C99.8912 236.897 99.1259 237.126 98.2112 237.126C97.4739 237.126 96.8205 236.963 96.2512 236.636C95.6819 236.3 95.2339 235.833 94.9072 235.236C94.5899 234.629 94.4312 233.929 94.4312 233.136ZM110.263 232.954C110.263 233.243 110.244 233.505 110.207 233.738H104.313C104.359 234.354 104.588 234.849 104.999 235.222C105.409 235.595 105.913 235.782 106.511 235.782C107.369 235.782 107.976 235.423 108.331 234.704H110.053C109.819 235.413 109.395 235.997 108.779 236.454C108.172 236.902 107.416 237.126 106.511 237.126C105.773 237.126 105.111 236.963 104.523 236.636C103.944 236.3 103.487 235.833 103.151 235.236C102.824 234.629 102.661 233.929 102.661 233.136C102.661 232.343 102.819 231.647 103.137 231.05C103.463 230.443 103.916 229.977 104.495 229.65C105.083 229.323 105.755 229.16 106.511 229.16C107.239 229.16 107.887 229.319 108.457 229.636C109.026 229.953 109.469 230.401 109.787 230.98C110.104 231.549 110.263 232.207 110.263 232.954ZM108.597 232.45C108.587 231.862 108.377 231.391 107.967 231.036C107.556 230.681 107.047 230.504 106.441 230.504C105.89 230.504 105.419 230.681 105.027 231.036C104.635 231.381 104.401 231.853 104.327 232.45H108.597ZM113.264 226.64V237H111.668V226.64H113.264Z" fill="#008F7F"/>
<path d="M98.8126 31.224C97.0099 31.224 95.6339 30.7227 94.6846 29.72C93.7459 28.7173 93.2766 27.2933 93.2766 25.448C93.2766 24.5307 93.4206 23.7147 93.7086 23C93.9966 22.2747 94.3912 21.6667 94.8926 21.176C95.3939 20.6747 95.9912 20.296 96.6846 20.04C97.3779 19.784 98.1299 19.656 98.9406 19.656C99.4099 19.656 99.8366 19.6933 100.221 19.768C100.605 19.832 100.941 19.912 101.229 20.008C101.517 20.0933 101.757 20.184 101.949 20.28C102.141 20.376 102.279 20.4507 102.365 20.504L101.645 22.52C101.303 22.3387 100.903 22.184 100.445 22.056C99.9966 21.928 99.4846 21.864 98.9086 21.864C98.5246 21.864 98.1459 21.928 97.7726 22.056C97.4099 22.184 97.0846 22.392 96.7966 22.68C96.5192 22.9573 96.2952 23.32 96.1246 23.768C95.9539 24.216 95.8686 24.76 95.8686 25.4C95.8686 25.912 95.9219 26.392 96.0286 26.84C96.1459 27.2773 96.3272 27.656 96.5726 27.976C96.8286 28.296 97.1592 28.552 97.5646 28.744C97.9699 28.9253 98.4606 29.016 99.0366 29.016C99.3992 29.016 99.7246 28.9947 100.013 28.952C100.301 28.9093 100.557 28.8613 100.781 28.808C101.005 28.744 101.202 28.6747 101.373 28.6C101.543 28.5253 101.698 28.456 101.837 28.392L102.525 30.392C102.173 30.6053 101.677 30.7973 101.037 30.968C100.397 31.1387 99.6552 31.224 98.8126 31.224ZM103.972 31V18.968L106.356 18.584V22.616C106.516 22.5627 106.718 22.5147 106.964 22.472C107.22 22.4187 107.465 22.392 107.7 22.392C108.382 22.392 108.948 22.488 109.396 22.68C109.854 22.8613 110.217 23.1227 110.484 23.464C110.761 23.8053 110.953 24.2107 111.06 24.68C111.177 25.1493 111.236 25.672 111.236 26.248V31H108.852V26.536C108.852 25.768 108.75 25.224 108.548 24.904C108.356 24.584 107.993 24.424 107.46 24.424C107.246 24.424 107.044 24.4453 106.852 24.488C106.67 24.52 106.505 24.5573 106.356 24.6V31H103.972ZM121.265 26.776C121.265 27.4373 121.169 28.0453 120.977 28.6C120.785 29.144 120.508 29.6133 120.145 30.008C119.783 30.392 119.345 30.6907 118.833 30.904C118.332 31.1173 117.767 31.224 117.137 31.224C116.519 31.224 115.953 31.1173 115.441 30.904C114.94 30.6907 114.508 30.392 114.145 30.008C113.783 29.6133 113.5 29.144 113.297 28.6C113.095 28.0453 112.993 27.4373 112.993 26.776C112.993 26.1147 113.095 25.512 113.297 24.968C113.511 24.424 113.799 23.96 114.161 23.576C114.535 23.192 114.972 22.8933 115.473 22.68C115.985 22.4667 116.54 22.36 117.137 22.36C117.745 22.36 118.3 22.4667 118.801 22.68C119.313 22.8933 119.751 23.192 120.113 23.576C120.476 23.96 120.759 24.424 120.961 24.968C121.164 25.512 121.265 26.1147 121.265 26.776ZM118.833 26.776C118.833 26.04 118.684 25.464 118.385 25.048C118.097 24.6213 117.681 24.408 117.137 24.408C116.593 24.408 116.172 24.6213 115.873 25.048C115.575 25.464 115.425 26.04 115.425 26.776C115.425 27.512 115.575 28.0987 115.873 28.536C116.172 28.9627 116.593 29.176 117.137 29.176C117.681 29.176 118.097 28.9627 118.385 28.536C118.684 28.0987 118.833 27.512 118.833 26.776ZM130.984 26.776C130.984 27.4373 130.888 28.0453 130.696 28.6C130.504 29.144 130.227 29.6133 129.864 30.008C129.502 30.392 129.064 30.6907 128.552 30.904C128.051 31.1173 127.486 31.224 126.856 31.224C126.238 31.224 125.672 31.1173 125.16 30.904C124.659 30.6907 124.227 30.392 123.864 30.008C123.502 29.6133 123.219 29.144 123.016 28.6C122.814 28.0453 122.712 27.4373 122.712 26.776C122.712 26.1147 122.814 25.512 123.016 24.968C123.23 24.424 123.518 23.96 123.88 23.576C124.254 23.192 124.691 22.8933 125.192 22.68C125.704 22.4667 126.259 22.36 126.856 22.36C127.464 22.36 128.019 22.4667 128.52 22.68C129.032 22.8933 129.47 23.192 129.832 23.576C130.195 23.96 130.478 24.424 130.68 24.968C130.883 25.512 130.984 26.1147 130.984 26.776ZM128.552 26.776C128.552 26.04 128.403 25.464 128.104 25.048C127.816 24.6213 127.4 24.408 126.856 24.408C126.312 24.408 125.891 24.6213 125.592 25.048C125.294 25.464 125.144 26.04 125.144 26.776C125.144 27.512 125.294 28.0987 125.592 28.536C125.891 28.9627 126.312 29.176 126.856 29.176C127.4 29.176 127.816 28.9627 128.104 28.536C128.403 28.0987 128.552 27.512 128.552 26.776ZM135.247 29.288C135.684 29.288 135.994 29.2453 136.175 29.16C136.356 29.0747 136.447 28.9093 136.447 28.664C136.447 28.472 136.33 28.3067 136.095 28.168C135.86 28.0187 135.503 27.8533 135.023 27.672C134.65 27.5333 134.308 27.3893 133.999 27.24C133.7 27.0907 133.444 26.9147 133.231 26.712C133.018 26.4987 132.852 26.248 132.735 25.96C132.618 25.672 132.559 25.3253 132.559 24.92C132.559 24.1307 132.852 23.5067 133.439 23.048C134.026 22.5893 134.831 22.36 135.855 22.36C136.367 22.36 136.858 22.408 137.327 22.504C137.796 22.5893 138.17 22.6853 138.447 22.792L138.031 24.648C137.754 24.552 137.45 24.4667 137.119 24.392C136.799 24.3173 136.436 24.28 136.031 24.28C135.284 24.28 134.911 24.488 134.911 24.904C134.911 25 134.927 25.0853 134.959 25.16C134.991 25.2347 135.055 25.3093 135.151 25.384C135.247 25.448 135.375 25.5227 135.535 25.608C135.706 25.6827 135.919 25.768 136.175 25.864C136.698 26.056 137.13 26.248 137.471 26.44C137.812 26.6213 138.079 26.824 138.271 27.048C138.474 27.2613 138.612 27.5013 138.687 27.768C138.772 28.0347 138.815 28.344 138.815 28.696C138.815 29.528 138.5 30.1573 137.871 30.584C137.252 31.0107 136.372 31.224 135.231 31.224C134.484 31.224 133.86 31.16 133.359 31.032C132.868 30.904 132.527 30.7973 132.335 30.712L132.735 28.776C133.14 28.936 133.556 29.064 133.983 29.16C134.41 29.2453 134.831 29.288 135.247 29.288ZM140.197 26.856C140.197 26.1093 140.309 25.4587 140.533 24.904C140.767 24.3387 141.071 23.8693 141.445 23.496C141.818 23.1227 142.245 22.84 142.725 22.648C143.215 22.456 143.717 22.36 144.229 22.36C145.423 22.36 146.367 22.728 147.061 23.464C147.754 24.1893 148.101 25.2613 148.101 26.68C148.101 26.8187 148.095 26.9733 148.085 27.144C148.074 27.304 148.063 27.448 148.053 27.576H142.645C142.698 28.0667 142.927 28.456 143.333 28.744C143.738 29.032 144.282 29.176 144.965 29.176C145.402 29.176 145.829 29.1387 146.245 29.064C146.671 28.9787 147.018 28.8773 147.285 28.76L147.605 30.696C147.477 30.76 147.306 30.824 147.093 30.888C146.879 30.952 146.639 31.0053 146.373 31.048C146.117 31.1013 145.839 31.144 145.541 31.176C145.242 31.208 144.943 31.224 144.645 31.224C143.887 31.224 143.226 31.112 142.661 30.888C142.106 30.664 141.642 30.36 141.269 29.976C140.906 29.5813 140.634 29.1173 140.453 28.584C140.282 28.0507 140.197 27.4747 140.197 26.856ZM145.797 25.944C145.786 25.7413 145.749 25.544 145.685 25.352C145.631 25.16 145.541 24.9893 145.413 24.84C145.295 24.6907 145.141 24.568 144.949 24.472C144.767 24.376 144.538 24.328 144.261 24.328C143.994 24.328 143.765 24.376 143.573 24.472C143.381 24.5573 143.221 24.6747 143.093 24.824C142.965 24.9733 142.863 25.1493 142.789 25.352C142.725 25.544 142.677 25.7413 142.645 25.944H145.797ZM157 29.336C157.235 29.336 157.459 29.3307 157.672 29.32C157.885 29.3093 158.056 29.2933 158.184 29.272V27.464C158.088 27.4427 157.944 27.4213 157.752 27.4C157.56 27.3787 157.384 27.368 157.224 27.368C157 27.368 156.787 27.384 156.584 27.416C156.392 27.4373 156.221 27.4853 156.072 27.56C155.923 27.6347 155.805 27.736 155.72 27.864C155.635 27.992 155.592 28.152 155.592 28.344C155.592 28.7173 155.715 28.9787 155.96 29.128C156.216 29.2667 156.563 29.336 157 29.336ZM156.808 22.36C157.512 22.36 158.099 22.44 158.568 22.6C159.037 22.76 159.411 22.9893 159.688 23.288C159.976 23.5867 160.179 23.9493 160.296 24.376C160.413 24.8027 160.472 25.2773 160.472 25.8V30.76C160.131 30.8347 159.656 30.92 159.048 31.016C158.44 31.1227 157.704 31.176 156.84 31.176C156.296 31.176 155.8 31.128 155.352 31.032C154.915 30.936 154.536 30.7813 154.216 30.568C153.896 30.344 153.651 30.056 153.48 29.704C153.309 29.352 153.224 28.92 153.224 28.408C153.224 27.9173 153.32 27.5013 153.512 27.16C153.715 26.8187 153.981 26.5467 154.312 26.344C154.643 26.1413 155.021 25.9973 155.448 25.912C155.875 25.816 156.317 25.768 156.776 25.768C157.085 25.768 157.357 25.784 157.592 25.816C157.837 25.8373 158.035 25.8693 158.184 25.912V25.688C158.184 25.2827 158.061 24.9573 157.816 24.712C157.571 24.4667 157.144 24.344 156.536 24.344C156.131 24.344 155.731 24.376 155.336 24.44C154.941 24.4933 154.6 24.5733 154.312 24.68L154.008 22.76C154.147 22.7173 154.317 22.6747 154.52 22.632C154.733 22.5787 154.963 22.536 155.208 22.504C155.453 22.4613 155.709 22.4293 155.976 22.408C156.253 22.376 156.531 22.36 156.808 22.36ZM169.832 31.16C169.138 31.1493 168.573 31.0747 168.136 30.936C167.709 30.7973 167.368 30.6053 167.112 30.36C166.866 30.104 166.696 29.8 166.6 29.448C166.514 29.0853 166.472 28.68 166.472 28.232V18.968L168.856 18.584V27.752C168.856 27.9653 168.872 28.1573 168.904 28.328C168.936 28.4987 168.994 28.6427 169.08 28.76C169.176 28.8773 169.309 28.9733 169.48 29.048C169.65 29.1227 169.88 29.1707 170.168 29.192L169.832 31.16ZM174.984 29.336C175.219 29.336 175.443 29.3307 175.656 29.32C175.87 29.3093 176.04 29.2933 176.168 29.272V27.464C176.072 27.4427 175.928 27.4213 175.736 27.4C175.544 27.3787 175.368 27.368 175.208 27.368C174.984 27.368 174.771 27.384 174.568 27.416C174.376 27.4373 174.206 27.4853 174.056 27.56C173.907 27.6347 173.79 27.736 173.704 27.864C173.619 27.992 173.576 28.152 173.576 28.344C173.576 28.7173 173.699 28.9787 173.944 29.128C174.2 29.2667 174.547 29.336 174.984 29.336ZM174.792 22.36C175.496 22.36 176.083 22.44 176.552 22.6C177.022 22.76 177.395 22.9893 177.672 23.288C177.96 23.5867 178.163 23.9493 178.28 24.376C178.398 24.8027 178.456 25.2773 178.456 25.8V30.76C178.115 30.8347 177.64 30.92 177.032 31.016C176.424 31.1227 175.688 31.176 174.824 31.176C174.28 31.176 173.784 31.128 173.336 31.032C172.899 30.936 172.52 30.7813 172.2 30.568C171.88 30.344 171.635 30.056 171.464 29.704C171.294 29.352 171.208 28.92 171.208 28.408C171.208 27.9173 171.304 27.5013 171.496 27.16C171.699 26.8187 171.966 26.5467 172.296 26.344C172.627 26.1413 173.006 25.9973 173.432 25.912C173.859 25.816 174.302 25.768 174.76 25.768C175.07 25.768 175.342 25.784 175.576 25.816C175.822 25.8373 176.019 25.8693 176.168 25.912V25.688C176.168 25.2827 176.046 24.9573 175.8 24.712C175.555 24.4667 175.128 24.344 174.52 24.344C174.115 24.344 173.715 24.376 173.32 24.44C172.926 24.4933 172.584 24.5733 172.296 24.68L171.992 22.76C172.131 22.7173 172.302 22.6747 172.504 22.632C172.718 22.5787 172.947 22.536 173.192 22.504C173.438 22.4613 173.694 22.4293 173.96 22.408C174.238 22.376 174.515 22.36 174.792 22.36ZM180.612 22.872C181.018 22.7547 181.54 22.648 182.18 22.552C182.82 22.4453 183.492 22.392 184.196 22.392C184.911 22.392 185.503 22.488 185.972 22.68C186.452 22.8613 186.831 23.1227 187.108 23.464C187.386 23.8053 187.583 24.2107 187.7 24.68C187.818 25.1493 187.876 25.672 187.876 26.248V31H185.492V26.536C185.492 25.768 185.391 25.224 185.188 24.904C184.986 24.584 184.607 24.424 184.052 24.424C183.882 24.424 183.7 24.4347 183.508 24.456C183.316 24.4667 183.146 24.4827 182.996 24.504V31H180.612V22.872ZM192.066 26.52C192.066 27.8533 192.605 28.52 193.682 28.52C193.927 28.52 194.157 28.488 194.37 28.424C194.583 28.36 194.765 28.2853 194.914 28.2V24.392C194.797 24.3707 194.658 24.3547 194.498 24.344C194.338 24.3227 194.151 24.312 193.938 24.312C193.309 24.312 192.839 24.52 192.53 24.936C192.221 25.352 192.066 25.88 192.066 26.52ZM197.298 29.944C197.298 31.32 196.946 32.3387 196.242 33C195.549 33.672 194.471 34.008 193.01 34.008C192.498 34.008 191.986 33.96 191.474 33.864C190.962 33.7787 190.487 33.6613 190.05 33.512L190.466 31.512C190.839 31.6613 191.229 31.7787 191.634 31.864C192.05 31.9493 192.519 31.992 193.042 31.992C193.725 31.992 194.205 31.8427 194.482 31.544C194.77 31.2453 194.914 30.8613 194.914 30.392V30.088C194.658 30.2053 194.391 30.296 194.114 30.36C193.847 30.4133 193.554 30.44 193.234 30.44C192.071 30.44 191.181 30.0987 190.562 29.416C189.943 28.7227 189.634 27.7573 189.634 26.52C189.634 25.9013 189.73 25.3413 189.922 24.84C190.114 24.328 190.391 23.8907 190.754 23.528C191.127 23.1653 191.581 22.888 192.114 22.696C192.647 22.4933 193.25 22.392 193.922 22.392C194.21 22.392 194.503 22.408 194.802 22.44C195.111 22.4613 195.415 22.4933 195.714 22.536C196.013 22.5787 196.295 22.632 196.562 22.696C196.839 22.7493 197.085 22.808 197.298 22.872V29.944ZM206.718 30.712C206.313 30.8293 205.79 30.936 205.15 31.032C204.51 31.1387 203.838 31.192 203.134 31.192C202.419 31.192 201.822 31.096 201.342 30.904C200.873 30.712 200.499 30.4453 200.222 30.104C199.945 29.752 199.747 29.336 199.63 28.856C199.513 28.376 199.454 27.848 199.454 27.272V22.584H201.838V26.984C201.838 27.752 201.939 28.3067 202.142 28.648C202.345 28.9893 202.723 29.16 203.278 29.16C203.449 29.16 203.63 29.1547 203.822 29.144C204.014 29.1227 204.185 29.1013 204.334 29.08V22.584H206.718V30.712ZM212.172 29.336C212.407 29.336 212.631 29.3307 212.844 29.32C213.057 29.3093 213.228 29.2933 213.356 29.272V27.464C213.26 27.4427 213.116 27.4213 212.924 27.4C212.732 27.3787 212.556 27.368 212.396 27.368C212.172 27.368 211.959 27.384 211.756 27.416C211.564 27.4373 211.393 27.4853 211.244 27.56C211.095 27.6347 210.977 27.736 210.892 27.864C210.807 27.992 210.764 28.152 210.764 28.344C210.764 28.7173 210.887 28.9787 211.132 29.128C211.388 29.2667 211.735 29.336 212.172 29.336ZM211.98 22.36C212.684 22.36 213.271 22.44 213.74 22.6C214.209 22.76 214.583 22.9893 214.86 23.288C215.148 23.5867 215.351 23.9493 215.468 24.376C215.585 24.8027 215.644 25.2773 215.644 25.8V30.76C215.303 30.8347 214.828 30.92 214.22 31.016C213.612 31.1227 212.876 31.176 212.012 31.176C211.468 31.176 210.972 31.128 210.524 31.032C210.087 30.936 209.708 30.7813 209.388 30.568C209.068 30.344 208.823 30.056 208.652 29.704C208.481 29.352 208.396 28.92 208.396 28.408C208.396 27.9173 208.492 27.5013 208.684 27.16C208.887 26.8187 209.153 26.5467 209.484 26.344C209.815 26.1413 210.193 25.9973 210.62 25.912C211.047 25.816 211.489 25.768 211.948 25.768C212.257 25.768 212.529 25.784 212.764 25.816C213.009 25.8373 213.207 25.8693 213.356 25.912V25.688C213.356 25.2827 213.233 24.9573 212.988 24.712C212.743 24.4667 212.316 24.344 211.708 24.344C211.303 24.344 210.903 24.376 210.508 24.44C210.113 24.4933 209.772 24.5733 209.484 24.68L209.18 22.76C209.319 22.7173 209.489 22.6747 209.692 22.632C209.905 22.5787 210.135 22.536 210.38 22.504C210.625 22.4613 210.881 22.4293 211.148 22.408C211.425 22.376 211.703 22.36 211.98 22.36ZM219.832 26.52C219.832 27.8533 220.37 28.52 221.448 28.52C221.693 28.52 221.922 28.488 222.136 28.424C222.349 28.36 222.53 28.2853 222.68 28.2V24.392C222.562 24.3707 222.424 24.3547 222.264 24.344C222.104 24.3227 221.917 24.312 221.704 24.312C221.074 24.312 220.605 24.52 220.296 24.936C219.986 25.352 219.832 25.88 219.832 26.52ZM225.064 29.944C225.064 31.32 224.712 32.3387 224.008 33C223.314 33.672 222.237 34.008 220.776 34.008C220.264 34.008 219.752 33.96 219.24 33.864C218.728 33.7787 218.253 33.6613 217.816 33.512L218.232 31.512C218.605 31.6613 218.994 31.7787 219.4 31.864C219.816 31.9493 220.285 31.992 220.808 31.992C221.49 31.992 221.97 31.8427 222.248 31.544C222.536 31.2453 222.68 30.8613 222.68 30.392V30.088C222.424 30.2053 222.157 30.296 221.88 30.36C221.613 30.4133 221.32 30.44 221 30.44C219.837 30.44 218.946 30.0987 218.328 29.416C217.709 28.7227 217.4 27.7573 217.4 26.52C217.4 25.9013 217.496 25.3413 217.688 24.84C217.88 24.328 218.157 23.8907 218.52 23.528C218.893 23.1653 219.346 22.888 219.88 22.696C220.413 22.4933 221.016 22.392 221.688 22.392C221.976 22.392 222.269 22.408 222.568 22.44C222.877 22.4613 223.181 22.4933 223.48 22.536C223.778 22.5787 224.061 22.632 224.328 22.696C224.605 22.7493 224.85 22.808 225.064 22.872V29.944ZM226.9 26.856C226.9 26.1093 227.012 25.4587 227.236 24.904C227.47 24.3387 227.774 23.8693 228.148 23.496C228.521 23.1227 228.948 22.84 229.428 22.648C229.918 22.456 230.42 22.36 230.932 22.36C232.126 22.36 233.07 22.728 233.764 23.464C234.457 24.1893 234.804 25.2613 234.804 26.68C234.804 26.8187 234.798 26.9733 234.788 27.144C234.777 27.304 234.766 27.448 234.756 27.576H229.348C229.401 28.0667 229.63 28.456 230.036 28.744C230.441 29.032 230.985 29.176 231.668 29.176C232.105 29.176 232.532 29.1387 232.948 29.064C233.374 28.9787 233.721 28.8773 233.988 28.76L234.308 30.696C234.18 30.76 234.009 30.824 233.796 30.888C233.582 30.952 233.342 31.0053 233.076 31.048C232.82 31.1013 232.542 31.144 232.244 31.176C231.945 31.208 231.646 31.224 231.348 31.224C230.59 31.224 229.929 31.112 229.364 30.888C228.809 30.664 228.345 30.36 227.972 29.976C227.609 29.5813 227.337 29.1173 227.156 28.584C226.985 28.0507 226.9 27.4747 226.9 26.856ZM232.5 25.944C232.489 25.7413 232.452 25.544 232.388 25.352C232.334 25.16 232.244 24.9893 232.116 24.84C231.998 24.6907 231.844 24.568 231.652 24.472C231.47 24.376 231.241 24.328 230.964 24.328C230.697 24.328 230.468 24.376 230.276 24.472C230.084 24.5573 229.924 24.6747 229.796 24.824C229.668 24.9733 229.566 25.1493 229.492 25.352C229.428 25.544 229.38 25.7413 229.348 25.944H232.5Z" fill="white"/>
<g filter="url(#filter0_d_153_273)">
<mask id="mask0_153_273" style="mask-type:alpha" maskUnits="userSpaceOnUse" x="28" y="62" width="24" height="24">
<circle cx="40" cy="74" r="12" fill="#C4C4C4"/>
</mask>
<g mask="url(#mask0_153_273)">
<rect x="28" y="62" width="24" height="8.22857" fill="#04AAC8"/>
<rect x="28" y="70.2285" width="24" height="7.54286" fill="white"/>
<rect x="28" y="77.7715" width="24" height="8.22857" fill="#23C840"/>
</g>
</g>
<path d="M64.812 74.142C64.812 73.3113 64.9333 72.5787 65.176 71.944C65.428 71.3093 65.764 70.782 66.184 70.362C66.6133 69.9327 67.108 69.6107 67.668 69.396C68.2373 69.1813 68.8393 69.074 69.474 69.074C70.0993 69.074 70.6873 69.1813 71.238 69.396C71.798 69.6107 72.288 69.9327 72.708 70.362C73.128 70.782 73.4593 71.3093 73.702 71.944C73.954 72.5787 74.08 73.3113 74.08 74.142C74.08 74.9727 73.954 75.7053 73.702 76.34C73.4593 76.9747 73.128 77.5067 72.708 77.936C72.288 78.356 71.798 78.6733 71.238 78.888C70.6873 79.1027 70.0993 79.21 69.474 79.21C68.8393 79.21 68.2373 79.1027 67.668 78.888C67.108 78.6733 66.6133 78.356 66.184 77.936C65.764 77.5067 65.428 76.9747 65.176 76.34C64.9333 75.7053 64.812 74.9727 64.812 74.142ZM66.24 74.142C66.24 74.73 66.3147 75.2667 66.464 75.752C66.6133 76.228 66.8233 76.634 67.094 76.97C67.374 77.306 67.71 77.5673 68.102 77.754C68.5033 77.9313 68.9513 78.02 69.446 78.02C69.9407 78.02 70.384 77.9313 70.776 77.754C71.168 77.5673 71.4993 77.306 71.77 76.97C72.05 76.634 72.2647 76.228 72.414 75.752C72.5633 75.2667 72.638 74.73 72.638 74.142C72.638 73.554 72.5633 73.022 72.414 72.546C72.2647 72.0607 72.05 71.65 71.77 71.314C71.4993 70.978 71.168 70.7213 70.776 70.544C70.384 70.3573 69.9407 70.264 69.446 70.264C68.9513 70.264 68.5033 70.3573 68.102 70.544C67.71 70.7213 67.374 70.978 67.094 71.314C66.8233 71.65 66.6133 72.0607 66.464 72.546C66.3147 73.022 66.24 73.554 66.24 74.142ZM75.3527 71.72C75.3527 71.6173 75.3527 71.5193 75.3527 71.426C75.3527 71.3233 75.3574 71.2253 75.3667 71.132C75.4041 70.6467 75.5114 70.166 75.6887 69.69C75.8661 69.214 76.0807 68.7707 76.3327 68.36L77.3407 68.682C77.1447 69.0927 76.9954 69.508 76.8927 69.928C76.7994 70.348 76.7527 70.74 76.7527 71.104C76.7527 71.1973 76.7527 71.3 76.7527 71.412C76.7621 71.5147 76.7714 71.6173 76.7807 71.72H75.3527ZM83.5927 72.7C83.3967 72.9147 83.1353 73.218 82.8087 73.61C82.4913 74.002 82.146 74.436 81.7727 74.912C81.4087 75.388 81.04 75.8873 80.6667 76.41C80.3027 76.9327 79.9807 77.432 79.7007 77.908H83.7047V79H78.1467V78.132C78.3707 77.7213 78.646 77.2687 78.9727 76.774C79.2993 76.2793 79.64 75.7893 79.9947 75.304C80.3587 74.8093 80.7087 74.3473 81.0447 73.918C81.39 73.4793 81.6887 73.1107 81.9407 72.812H78.3427V71.72H83.5927V72.7ZM86.4895 72.042C86.6482 71.9393 86.8862 71.832 87.2035 71.72C87.5302 71.608 87.9035 71.552 88.3235 71.552C88.8462 71.552 89.3082 71.6453 89.7095 71.832C90.1202 72.0187 90.4655 72.28 90.7455 72.616C91.0255 72.952 91.2355 73.3533 91.3755 73.82C91.5248 74.2867 91.5995 74.8 91.5995 75.36C91.5995 75.948 91.5108 76.48 91.3335 76.956C91.1655 77.4227 90.9228 77.8193 90.6055 78.146C90.2882 78.4727 89.9055 78.7247 89.4575 78.902C89.0095 79.0793 88.5055 79.168 87.9455 79.168C87.3388 79.168 86.8022 79.126 86.3355 79.042C85.8688 78.958 85.4862 78.874 85.1875 78.79V68.36L86.4895 68.136V72.042ZM86.4895 77.866C86.6202 77.9033 86.8022 77.9407 87.0355 77.978C87.2782 78.006 87.5768 78.02 87.9315 78.02C88.6315 78.02 89.1915 77.7913 89.6115 77.334C90.0315 76.8673 90.2415 76.2093 90.2415 75.36C90.2415 74.9867 90.2042 74.6367 90.1295 74.31C90.0548 73.9833 89.9335 73.7033 89.7655 73.47C89.5975 73.2273 89.3782 73.0407 89.1075 72.91C88.8462 72.77 88.5288 72.7 88.1555 72.7C87.8008 72.7 87.4742 72.7607 87.1755 72.882C86.8768 73.0033 86.6482 73.1293 86.4895 73.26V77.866ZM92.8606 75.374C92.8606 74.73 92.954 74.17 93.1406 73.694C93.3273 73.2087 93.5746 72.8073 93.8826 72.49C94.1906 72.1727 94.5453 71.9347 94.9466 71.776C95.348 71.6173 95.7586 71.538 96.1786 71.538C97.1586 71.538 97.91 71.846 98.4326 72.462C98.9553 73.0687 99.2166 73.9973 99.2166 75.248C99.2166 75.304 99.2166 75.3787 99.2166 75.472C99.2166 75.556 99.212 75.6353 99.2026 75.71H94.2186C94.2746 76.466 94.494 77.04 94.8766 77.432C95.2593 77.824 95.8566 78.02 96.6686 78.02C97.126 78.02 97.5086 77.9827 97.8166 77.908C98.134 77.824 98.372 77.7447 98.5306 77.67L98.7126 78.762C98.554 78.846 98.274 78.9347 97.8726 79.028C97.4806 79.1213 97.0326 79.168 96.5286 79.168C95.894 79.168 95.3433 79.0747 94.8766 78.888C94.4193 78.692 94.0413 78.426 93.7426 78.09C93.444 77.754 93.22 77.3573 93.0706 76.9C92.9306 76.4333 92.8606 75.9247 92.8606 75.374ZM97.8586 74.66C97.868 74.072 97.7186 73.5913 97.4106 73.218C97.112 72.8353 96.6966 72.644 96.1646 72.644C95.866 72.644 95.6 72.7047 95.3666 72.826C95.1426 72.938 94.9513 73.0873 94.7926 73.274C94.634 73.4607 94.508 73.6753 94.4146 73.918C94.3306 74.1607 94.2746 74.408 94.2466 74.66H97.8586ZM103.554 74.996C103.834 75.2107 104.128 75.4767 104.436 75.794C104.753 76.1113 105.061 76.4567 105.36 76.83C105.668 77.194 105.957 77.5673 106.228 77.95C106.499 78.3233 106.727 78.6733 106.914 79H105.388C105.192 78.6733 104.963 78.342 104.702 78.006C104.45 77.6607 104.184 77.334 103.904 77.026C103.624 76.7087 103.339 76.4193 103.05 76.158C102.761 75.8967 102.485 75.6773 102.224 75.5V79H100.922V68.36L102.224 68.136V74.772C102.448 74.548 102.695 74.3007 102.966 74.03C103.237 73.7593 103.503 73.484 103.764 73.204C104.025 72.924 104.273 72.658 104.506 72.406C104.739 72.1447 104.94 71.916 105.108 71.72H106.634C106.419 71.9533 106.186 72.21 105.934 72.49C105.682 72.77 105.421 73.0547 105.15 73.344C104.879 73.624 104.604 73.9087 104.324 74.198C104.053 74.478 103.797 74.744 103.554 74.996ZM112.421 74.814C112.421 76.0087 112.593 77.1147 112.939 78.132C113.284 79.1493 113.793 80.092 114.465 80.96L113.541 81.59C112.813 80.7033 112.225 79.686 111.777 78.538C111.338 77.3807 111.119 76.1393 111.119 74.814C111.119 73.4887 111.338 72.252 111.777 71.104C112.225 69.9467 112.813 68.9247 113.541 68.038L114.465 68.668C113.793 69.536 113.284 70.4787 112.939 71.496C112.593 72.5133 112.421 73.6193 112.421 74.814ZM121.443 77.824V79H115.605V69.298H116.963V77.824H121.443ZM128.877 75.36C128.877 75.9387 128.793 76.4613 128.625 76.928C128.457 77.3947 128.219 77.796 127.911 78.132C127.613 78.468 127.253 78.7293 126.833 78.916C126.413 79.0933 125.956 79.182 125.461 79.182C124.967 79.182 124.509 79.0933 124.089 78.916C123.669 78.7293 123.305 78.468 122.997 78.132C122.699 77.796 122.465 77.3947 122.297 76.928C122.129 76.4613 122.045 75.9387 122.045 75.36C122.045 74.7907 122.129 74.2727 122.297 73.806C122.465 73.33 122.699 72.924 122.997 72.588C123.305 72.252 123.669 71.9953 124.089 71.818C124.509 71.6313 124.967 71.538 125.461 71.538C125.956 71.538 126.413 71.6313 126.833 71.818C127.253 71.9953 127.613 72.252 127.911 72.588C128.219 72.924 128.457 73.33 128.625 73.806C128.793 74.2727 128.877 74.7907 128.877 75.36ZM127.519 75.36C127.519 74.5387 127.333 73.89 126.959 73.414C126.595 72.9287 126.096 72.686 125.461 72.686C124.827 72.686 124.323 72.9287 123.949 73.414C123.585 73.89 123.403 74.5387 123.403 75.36C123.403 76.1813 123.585 76.8347 123.949 77.32C124.323 77.796 124.827 78.034 125.461 78.034C126.096 78.034 126.595 77.796 126.959 77.32C127.333 76.8347 127.519 76.1813 127.519 75.36ZM131.762 71.72H134.52V72.812H131.762V76.172C131.762 76.536 131.79 76.8393 131.846 77.082C131.902 77.3153 131.986 77.502 132.098 77.642C132.21 77.7727 132.35 77.866 132.518 77.922C132.686 77.978 132.882 78.006 133.106 78.006C133.498 78.006 133.811 77.964 134.044 77.88C134.287 77.7867 134.455 77.7213 134.548 77.684L134.8 78.762C134.67 78.8273 134.441 78.9067 134.114 79C133.788 79.1027 133.414 79.154 132.994 79.154C132.5 79.154 132.089 79.0933 131.762 78.972C131.445 78.8413 131.188 78.65 130.992 78.398C130.796 78.146 130.656 77.838 130.572 77.474C130.498 77.1007 130.46 76.6713 130.46 76.186V69.69L131.762 69.466V71.72ZM137.314 79H136.012V71.72H137.314V79ZM136.656 70.404C136.423 70.404 136.222 70.3293 136.054 70.18C135.895 70.0213 135.816 69.8113 135.816 69.55C135.816 69.2887 135.895 69.0833 136.054 68.934C136.222 68.7753 136.423 68.696 136.656 68.696C136.889 68.696 137.085 68.7753 137.244 68.934C137.412 69.0833 137.496 69.2887 137.496 69.55C137.496 69.8113 137.412 70.0213 137.244 70.18C137.085 70.3293 136.889 70.404 136.656 70.404ZM139.388 71.93C139.687 71.8553 140.083 71.776 140.578 71.692C141.073 71.608 141.642 71.566 142.286 71.566C142.865 71.566 143.345 71.65 143.728 71.818C144.111 71.9767 144.414 72.2053 144.638 72.504C144.871 72.7933 145.035 73.1433 145.128 73.554C145.221 73.9647 145.268 74.4173 145.268 74.912V79H143.966V75.192C143.966 74.744 143.933 74.3613 143.868 74.044C143.812 73.7267 143.714 73.47 143.574 73.274C143.434 73.078 143.247 72.938 143.014 72.854C142.781 72.7607 142.491 72.714 142.146 72.714C142.006 72.714 141.861 72.7187 141.712 72.728C141.563 72.7373 141.418 72.7513 141.278 72.77C141.147 72.7793 141.026 72.7933 140.914 72.812C140.811 72.8307 140.737 72.8447 140.69 72.854V79H139.388V71.93ZM147.929 74.814C147.929 73.6193 147.756 72.5133 147.411 71.496C147.065 70.4787 146.557 69.536 145.885 68.668L146.809 68.038C147.537 68.9247 148.12 69.9467 148.559 71.104C149.007 72.252 149.231 73.4887 149.231 74.814C149.231 76.1393 149.007 77.3807 148.559 78.538C148.12 79.686 147.537 80.7033 146.809 81.59L145.885 80.96C146.557 80.092 147.065 79.1493 147.411 78.132C147.756 77.1147 147.929 76.0087 147.929 74.814Z" fill="#E7E7E7"/>
<path d="M287 64C281.48 64 277 68.48 277 74C277 79.52 281.48 84 287 84C292.52 84 297 79.52 297 74C297 68.48 292.52 64 287 64ZM287 82C282.58 82 279 78.42 279 74C279 69.58 282.58 66 287 66C291.42 66 295 69.58 295 74C295 78.42 291.42 82 287 82Z" fill="#008F7F"/>
<path d="M287 79C289.761 79 292 76.7614 292 74C292 71.2386 289.761 69 287 69C284.239 69 282 71.2386 282 74C282 76.7614 284.239 79 287 79Z" fill="#008F7F"/>
<g filter="url(#filter1_d_153_273)">
<mask id="mask1_153_273" style="mask-type:alpha" maskUnits="userSpaceOnUse" x="28" y="110" width="24" height="24">
<circle cx="40" cy="122" r="12" fill="#C4C4C4"/>
</mask>
<g mask="url(#mask1_153_273)">
<rect x="28" y="110" width="24" height="8.22857" fill="white"/>
<rect x="28" y="118.229" width="24" height="7.54286" fill="#0C47B7"/>
<rect x="28" y="125.771" width="24" height="8.22857" fill="#E53B35"/>
</g>
</g>
<path d="M67.78 117.2C69.1427 117.2 70.188 117.461 70.916 117.984C71.6533 118.497 72.022 119.267 72.022 120.294C72.022 120.854 71.9193 121.335 71.714 121.736C71.518 122.128 71.2287 122.45 70.846 122.702C70.4727 122.945 70.0153 123.122 69.474 123.234C68.9327 123.346 68.3213 123.402 67.64 123.402H66.562V127H65.204V117.438C65.5867 117.345 66.0113 117.284 66.478 117.256C66.954 117.219 67.388 117.2 67.78 117.2ZM67.892 118.39C67.3133 118.39 66.87 118.404 66.562 118.432V122.24H67.584C68.0507 122.24 68.4707 122.212 68.844 122.156C69.2173 122.091 69.53 121.988 69.782 121.848C70.0433 121.699 70.244 121.498 70.384 121.246C70.524 120.994 70.594 120.672 70.594 120.28C70.594 119.907 70.5193 119.599 70.37 119.356C70.23 119.113 70.034 118.922 69.782 118.782C69.5393 118.633 69.2547 118.53 68.928 118.474C68.6013 118.418 68.256 118.39 67.892 118.39ZM72.7553 128.358C72.858 128.405 72.9886 128.447 73.1473 128.484C73.3153 128.531 73.4786 128.554 73.6373 128.554C74.1506 128.554 74.552 128.437 74.8413 128.204C75.1306 127.98 75.392 127.611 75.6253 127.098C75.0373 125.978 74.4866 124.793 73.9733 123.542C73.4693 122.282 73.0493 121.008 72.7133 119.72H74.1133C74.216 120.14 74.3373 120.593 74.4773 121.078C74.6266 121.563 74.79 122.063 74.9673 122.576C75.1446 123.089 75.336 123.603 75.5413 124.116C75.7466 124.629 75.9613 125.124 76.1853 125.6C76.54 124.62 76.848 123.649 77.1093 122.688C77.3706 121.727 77.618 120.737 77.8513 119.72H79.1953C78.8593 121.092 78.486 122.413 78.0753 123.682C77.6646 124.942 77.2213 126.123 76.7453 127.224C76.5586 127.644 76.3626 128.003 76.1573 128.302C75.9613 128.61 75.742 128.862 75.4993 129.058C75.2566 129.254 74.9813 129.399 74.6733 129.492C74.3746 129.585 74.034 129.632 73.6513 129.632C73.5486 129.632 73.4413 129.623 73.3293 129.604C73.2173 129.595 73.1053 129.576 72.9933 129.548C72.8906 129.529 72.7926 129.506 72.6993 129.478C72.6153 129.45 72.5546 129.427 72.5173 129.408L72.7553 128.358ZM83.4032 127.168C82.8152 127.168 82.2972 127.075 81.8492 126.888C81.4106 126.701 81.0372 126.44 80.7292 126.104C80.4306 125.768 80.2066 125.371 80.0572 124.914C79.9079 124.447 79.8332 123.934 79.8332 123.374C79.8332 122.814 79.9126 122.301 80.0712 121.834C80.2392 121.367 80.4726 120.966 80.7712 120.63C81.0699 120.285 81.4339 120.019 81.8632 119.832C82.3019 119.636 82.7872 119.538 83.3192 119.538C83.6459 119.538 83.9726 119.566 84.2992 119.622C84.6259 119.678 84.9386 119.767 85.2372 119.888L84.9432 120.994C84.7472 120.901 84.5186 120.826 84.2572 120.77C84.0052 120.714 83.7346 120.686 83.4452 120.686C82.7172 120.686 82.1572 120.915 81.7652 121.372C81.3826 121.829 81.1912 122.497 81.1912 123.374C81.1912 123.766 81.2332 124.125 81.3172 124.452C81.4106 124.779 81.5506 125.059 81.7372 125.292C81.9332 125.525 82.1806 125.707 82.4792 125.838C82.7779 125.959 83.1419 126.02 83.5712 126.02C83.9166 126.02 84.2292 125.987 84.5092 125.922C84.7892 125.857 85.0086 125.787 85.1672 125.712L85.3492 126.804C85.2746 126.851 85.1672 126.897 85.0272 126.944C84.8872 126.981 84.7286 127.014 84.5512 127.042C84.3739 127.079 84.1826 127.107 83.9772 127.126C83.7812 127.154 83.5899 127.168 83.4032 127.168ZM89.746 127.168C89.158 127.168 88.64 127.075 88.192 126.888C87.7534 126.701 87.38 126.44 87.072 126.104C86.7734 125.768 86.5494 125.371 86.4 124.914C86.2507 124.447 86.176 123.934 86.176 123.374C86.176 122.814 86.2554 122.301 86.414 121.834C86.582 121.367 86.8154 120.966 87.114 120.63C87.4127 120.285 87.7767 120.019 88.206 119.832C88.6447 119.636 89.13 119.538 89.662 119.538C89.9887 119.538 90.3154 119.566 90.642 119.622C90.9687 119.678 91.2814 119.767 91.58 119.888L91.286 120.994C91.09 120.901 90.8614 120.826 90.6 120.77C90.348 120.714 90.0774 120.686 89.788 120.686C89.06 120.686 88.5 120.915 88.108 121.372C87.7254 121.829 87.534 122.497 87.534 123.374C87.534 123.766 87.576 124.125 87.66 124.452C87.7534 124.779 87.8934 125.059 88.08 125.292C88.276 125.525 88.5234 125.707 88.822 125.838C89.1207 125.959 89.4847 126.02 89.914 126.02C90.2594 126.02 90.572 125.987 90.852 125.922C91.132 125.857 91.3514 125.787 91.51 125.712L91.692 126.804C91.6174 126.851 91.51 126.897 91.37 126.944C91.23 126.981 91.0714 127.014 90.894 127.042C90.7167 127.079 90.5254 127.107 90.32 127.126C90.124 127.154 89.9327 127.168 89.746 127.168ZM95.5848 123.038C95.8742 123.243 96.1868 123.505 96.5228 123.822C96.8588 124.13 97.1855 124.466 97.5028 124.83C97.8295 125.194 98.1328 125.567 98.4128 125.95C98.6928 126.323 98.9308 126.673 99.1268 127H97.5868C97.3815 126.683 97.1388 126.361 96.8588 126.034C96.5882 125.698 96.3035 125.376 96.0048 125.068C95.7062 124.76 95.4028 124.475 95.0948 124.214C94.7868 123.953 94.4975 123.733 94.2268 123.556V127H92.9248V119.72H94.2268V122.842C94.4508 122.627 94.7075 122.38 94.9968 122.1C95.2862 121.811 95.5755 121.521 95.8648 121.232C96.1635 120.933 96.4388 120.653 96.6908 120.392C96.9428 120.121 97.1482 119.897 97.3068 119.72H98.8188C98.6135 119.944 98.3708 120.201 98.0908 120.49C97.8202 120.77 97.5355 121.059 97.2368 121.358C96.9475 121.657 96.6582 121.955 96.3688 122.254C96.0795 122.543 95.8182 122.805 95.5848 123.038ZM106.397 119.72V127H105.137V121.456C104.857 121.811 104.549 122.226 104.213 122.702C103.877 123.178 103.541 123.673 103.205 124.186C102.869 124.69 102.547 125.189 102.239 125.684C101.931 126.179 101.665 126.617 101.441 127H100.279V119.72H101.539V124.956C101.782 124.555 102.057 124.116 102.365 123.64C102.673 123.155 102.991 122.679 103.317 122.212C103.653 121.736 103.985 121.283 104.311 120.854C104.647 120.415 104.96 120.037 105.249 119.72H106.397ZM114.586 119.72V127H113.326V121.456C113.046 121.811 112.738 122.226 112.402 122.702C112.066 123.178 111.73 123.673 111.394 124.186C111.058 124.69 110.736 125.189 110.428 125.684C110.12 126.179 109.854 126.617 109.63 127H108.468V119.72H109.728V124.956C109.971 124.555 110.246 124.116 110.554 123.64C110.862 123.155 111.179 122.679 111.506 122.212C111.842 121.736 112.173 121.283 112.5 120.854C112.836 120.415 113.149 120.037 113.438 119.72H114.586ZM111.534 118.544C110.946 118.544 110.465 118.395 110.092 118.096C109.728 117.797 109.509 117.382 109.434 116.85L110.428 116.584C110.503 116.883 110.629 117.125 110.806 117.312C110.983 117.499 111.226 117.592 111.534 117.592C111.842 117.592 112.085 117.499 112.262 117.312C112.439 117.125 112.565 116.883 112.64 116.584L113.62 116.85C113.545 117.382 113.326 117.797 112.962 118.096C112.598 118.395 112.122 118.544 111.534 118.544Z" fill="#E7E7E7"/>
<path d="M287 112C281.48 112 277 116.48 277 122C277 127.52 281.48 132 287 132C292.52 132 297 127.52 297 122C297 116.48 292.52 112 287 112ZM287 130C282.58 130 279 126.42 279 122C279 117.58 282.58 114 287 114C291.42 114 295 117.58 295 122C295 126.42 291.42 130 287 130Z" fill="#A6A6A6" fill-opacity="0.2"/>
<path d="M287 127C289.761 127 292 124.761 292 122C292 119.239 289.761 117 287 117C284.239 117 282 119.239 282 122C282 124.761 284.239 127 287 127Z" fill="#A6A6A6" fill-opacity="0.2"/>
<g filter="url(#filter2_d_153_273)">
<mask id="mask2_153_273" style="mask-type:alpha" maskUnits="userSpaceOnUse" x="28" y="158" width="24" height="24">
<circle cx="40" cy="170" r="12" fill="#C4C4C4"/>
</mask>
<g mask="url(#mask2_153_273)">
<rect x="25.375" y="158.037" width="36.75" height="24" rx="2" fill="white"/>
<mask id="mask3_153_273" style="mask-type:luminance" maskUnits="userSpaceOnUse" x="25" y="158" width="38" height="25">
<rect x="25.375" y="158.037" width="36.75" height="24" rx="2" fill="white"/>
</mask>
<g mask="url(#mask3_153_273)">
<path fill-rule="evenodd" clip-rule="evenodd" d="M62.125 158.037H25.375V159.637H62.125V158.037ZM62.125 161.237H25.375V162.837H62.125V161.237ZM25.375 164.437H62.125V166.037H25.375V164.437ZM62.125 167.637H25.375V169.237H62.125V167.637ZM25.375 170.837H62.125V172.437H25.375V170.837ZM62.125 174.037H25.375V175.637H62.125V174.037ZM25.375 177.237H62.125V178.837H25.375V177.237ZM62.125 180.437H25.375V182.037H62.125V180.437Z" fill="#D02F44"/>
<rect x="25.375" y="158.037" width="15.75" height="11.2" fill="#46467F"/>
<g filter="url(#filter3_d_153_273)">
<path fill-rule="evenodd" clip-rule="evenodd" d="M28.875 160.437C28.875 160.879 28.4832 161.237 28 161.237C27.5168 161.237 27.125 160.879 27.125 160.437C27.125 159.995 27.5168 159.637 28 159.637C28.4832 159.637 28.875 159.995 28.875 160.437ZM32.375 160.437C32.375 160.879 31.9833 161.237 31.5 161.237C31.0168 161.237 30.625 160.879 30.625 160.437C30.625 159.995 31.0168 159.637 31.5 159.637C31.9833 159.637 32.375 159.995 32.375 160.437ZM34.9999 161.237C35.4831 161.237 35.8749 160.879 35.8749 160.437C35.8749 159.995 35.4831 159.637 34.9999 159.637C34.5166 159.637 34.1249 159.995 34.1249 160.437C34.1249 160.879 34.5166 161.237 34.9999 161.237ZM39.375 160.437C39.375 160.879 38.9832 161.237 38.5 161.237C38.0167 161.237 37.625 160.879 37.625 160.437C37.625 159.995 38.0167 159.637 38.5 159.637C38.9832 159.637 39.375 159.995 39.375 160.437ZM29.75 162.837C30.2333 162.837 30.625 162.479 30.625 162.037C30.625 161.595 30.2333 161.237 29.75 161.237C29.2668 161.237 28.875 161.595 28.875 162.037C28.875 162.479 29.2668 162.837 29.75 162.837ZM34.125 162.037C34.125 162.479 33.7333 162.837 33.25 162.837C32.7668 162.837 32.375 162.479 32.375 162.037C32.375 161.595 32.7668 161.237 33.25 161.237C33.7333 161.237 34.125 161.595 34.125 162.037ZM36.75 162.837C37.2332 162.837 37.625 162.479 37.625 162.037C37.625 161.595 37.2332 161.237 36.75 161.237C36.2667 161.237 35.875 161.595 35.875 162.037C35.875 162.479 36.2667 162.837 36.75 162.837ZM39.375 163.637C39.375 164.079 38.9832 164.437 38.5 164.437C38.0167 164.437 37.625 164.079 37.625 163.637C37.625 163.195 38.0167 162.837 38.5 162.837C38.9832 162.837 39.375 163.195 39.375 163.637ZM34.9999 164.437C35.4831 164.437 35.8749 164.079 35.8749 163.637C35.8749 163.195 35.4831 162.837 34.9999 162.837C34.5166 162.837 34.1249 163.195 34.1249 163.637C34.1249 164.079 34.5166 164.437 34.9999 164.437ZM32.375 163.637C32.375 164.079 31.9833 164.437 31.5 164.437C31.0168 164.437 30.625 164.079 30.625 163.637C30.625 163.195 31.0168 162.837 31.5 162.837C31.9833 162.837 32.375 163.195 32.375 163.637ZM28 164.437C28.4832 164.437 28.875 164.079 28.875 163.637C28.875 163.195 28.4832 162.837 28 162.837C27.5168 162.837 27.125 163.195 27.125 163.637C27.125 164.079 27.5168 164.437 28 164.437ZM30.625 165.237C30.625 165.679 30.2333 166.037 29.75 166.037C29.2668 166.037 28.875 165.679 28.875 165.237C28.875 164.795 29.2668 164.437 29.75 164.437C30.2333 164.437 30.625 164.795 30.625 165.237ZM33.25 166.037C33.7333 166.037 34.125 165.679 34.125 165.237C34.125 164.795 33.7333 164.437 33.25 164.437C32.7668 164.437 32.375 164.795 32.375 165.237C32.375 165.679 32.7668 166.037 33.25 166.037ZM37.625 165.237C37.625 165.679 37.2332 166.037 36.75 166.037C36.2667 166.037 35.875 165.679 35.875 165.237C35.875 164.795 36.2667 164.437 36.75 164.437C37.2332 164.437 37.625 164.795 37.625 165.237ZM38.5 167.637C38.9832 167.637 39.375 167.279 39.375 166.837C39.375 166.395 38.9832 166.037 38.5 166.037C38.0167 166.037 37.625 166.395 37.625 166.837C37.625 167.279 38.0167 167.637 38.5 167.637ZM35.8749 166.837C35.8749 167.279 35.4831 167.637 34.9999 167.637C34.5166 167.637 34.1249 167.279 34.1249 166.837C34.1249 166.395 34.5166 166.037 34.9999 166.037C35.4831 166.037 35.8749 166.395 35.8749 166.837ZM31.5 167.637C31.9833 167.637 32.375 167.279 32.375 166.837C32.375 166.395 31.9833 166.037 31.5 166.037C31.0168 166.037 30.625 166.395 30.625 166.837C30.625 167.279 31.0168 167.637 31.5 167.637ZM28.875 166.837C28.875 167.279 28.4832 167.637 28 167.637C27.5168 167.637 27.125 167.279 27.125 166.837C27.125 166.395 27.5168 166.037 28 166.037C28.4832 166.037 28.875 166.395 28.875 166.837Z" fill="url(#paint0_linear_153_273)"/>
</g>
</g>
</g>
</g>
<path d="M65.204 175V165.298H71.126V166.46H66.562V169.344H70.622V170.478H66.562V173.838H71.476V175H65.204ZM72.953 167.93C73.2517 167.855 73.6484 167.776 74.143 167.692C74.6377 167.608 75.207 167.566 75.851 167.566C76.4297 167.566 76.9104 167.65 77.293 167.818C77.6757 167.977 77.979 168.205 78.203 168.504C78.4364 168.793 78.5997 169.143 78.693 169.554C78.7864 169.965 78.833 170.417 78.833 170.912V175H77.531V171.192C77.531 170.744 77.4984 170.361 77.433 170.044C77.377 169.727 77.279 169.47 77.139 169.274C76.999 169.078 76.8124 168.938 76.579 168.854C76.3457 168.761 76.0564 168.714 75.711 168.714C75.571 168.714 75.4264 168.719 75.277 168.728C75.1277 168.737 74.983 168.751 74.843 168.77C74.7124 168.779 74.591 168.793 74.479 168.812C74.3764 168.831 74.3017 168.845 74.255 168.854V175H72.953V167.93ZM85.3911 174.272C85.2791 174.347 85.0598 174.445 84.7331 174.566C84.4158 174.678 84.0424 174.734 83.6131 174.734C83.1744 174.734 82.7591 174.664 82.3671 174.524C81.9844 174.384 81.6484 174.169 81.3591 173.88C81.0698 173.581 80.8411 173.213 80.6731 172.774C80.5051 172.335 80.4211 171.813 80.4211 171.206C80.4211 170.674 80.5004 170.189 80.6591 169.75C80.8178 169.302 81.0464 168.919 81.3451 168.602C81.6531 168.275 82.0264 168.023 82.4651 167.846C82.9038 167.659 83.3984 167.566 83.9491 167.566C84.5558 167.566 85.0831 167.613 85.5311 167.706C85.9884 167.79 86.3711 167.869 86.6791 167.944V174.44C86.6791 175.56 86.3898 176.372 85.8111 176.876C85.2324 177.38 84.3551 177.632 83.1791 177.632C82.7218 177.632 82.2878 177.595 81.8771 177.52C81.4758 177.445 81.1258 177.357 80.8271 177.254L81.0651 176.12C81.3264 176.223 81.6438 176.311 82.0171 176.386C82.3998 176.47 82.7964 176.512 83.2071 176.512C83.9818 176.512 84.5371 176.358 84.8731 176.05C85.2184 175.742 85.3911 175.252 85.3911 174.58V174.272ZM85.3771 168.868C85.2464 168.831 85.0691 168.798 84.8451 168.77C84.6304 168.733 84.3364 168.714 83.9631 168.714C83.2631 168.714 82.7218 168.943 82.3391 169.4C81.9658 169.857 81.7791 170.464 81.7791 171.22C81.7791 171.64 81.8304 171.999 81.9331 172.298C82.0451 172.597 82.1898 172.844 82.3671 173.04C82.5538 173.236 82.7638 173.381 82.9971 173.474C83.2398 173.567 83.4871 173.614 83.7391 173.614C84.0844 173.614 84.4018 173.567 84.6911 173.474C84.9804 173.371 85.2091 173.255 85.3771 173.124V168.868ZM90.9399 175.14C90.1372 175.121 89.5679 174.949 89.2319 174.622C88.8959 174.295 88.7279 173.787 88.7279 173.096V164.36L90.0299 164.136V172.886C90.0299 173.101 90.0485 173.278 90.0859 173.418C90.1232 173.558 90.1839 173.67 90.2679 173.754C90.3519 173.838 90.4639 173.903 90.6039 173.95C90.7439 173.987 90.9165 174.02 91.1219 174.048L90.9399 175.14ZM93.721 175H92.419V167.72H93.721V175ZM93.063 166.404C92.8297 166.404 92.629 166.329 92.461 166.18C92.3023 166.021 92.223 165.811 92.223 165.55C92.223 165.289 92.3023 165.083 92.461 164.934C92.629 164.775 92.8297 164.696 93.063 164.696C93.2963 164.696 93.4923 164.775 93.651 164.934C93.819 165.083 93.903 165.289 93.903 165.55C93.903 165.811 93.819 166.021 93.651 166.18C93.4923 166.329 93.2963 166.404 93.063 166.404ZM97.489 174.062C98.021 174.062 98.413 173.992 98.665 173.852C98.9263 173.712 99.057 173.488 99.057 173.18C99.057 172.863 98.931 172.611 98.679 172.424C98.427 172.237 98.0117 172.027 97.433 171.794C97.153 171.682 96.8823 171.57 96.621 171.458C96.369 171.337 96.1497 171.197 95.963 171.038C95.7763 170.879 95.627 170.688 95.515 170.464C95.403 170.24 95.347 169.965 95.347 169.638C95.347 168.994 95.585 168.485 96.061 168.112C96.537 167.729 97.1857 167.538 98.007 167.538C98.2123 167.538 98.4177 167.552 98.623 167.58C98.8283 167.599 99.0197 167.627 99.197 167.664C99.3743 167.692 99.5283 167.725 99.659 167.762C99.799 167.799 99.9063 167.832 99.981 167.86L99.743 168.98C99.603 168.905 99.3837 168.831 99.085 168.756C98.7863 168.672 98.427 168.63 98.007 168.63C97.643 168.63 97.3257 168.705 97.055 168.854C96.7843 168.994 96.649 169.218 96.649 169.526C96.649 169.685 96.677 169.825 96.733 169.946C96.7983 170.067 96.8917 170.179 97.013 170.282C97.1437 170.375 97.3023 170.464 97.489 170.548C97.6757 170.632 97.8997 170.721 98.161 170.814C98.5063 170.945 98.8143 171.075 99.085 171.206C99.3557 171.327 99.5843 171.472 99.771 171.64C99.967 171.808 100.116 172.013 100.219 172.256C100.322 172.489 100.373 172.779 100.373 173.124C100.373 173.796 100.121 174.305 99.617 174.65C99.1223 174.995 98.413 175.168 97.489 175.168C96.845 175.168 96.341 175.112 95.977 175C95.613 174.897 95.3657 174.818 95.235 174.762L95.473 173.642C95.6223 173.698 95.8603 173.782 96.187 173.894C96.5137 174.006 96.9477 174.062 97.489 174.062ZM101.878 175V164.36L103.18 164.136V167.86C103.423 167.767 103.679 167.697 103.95 167.65C104.23 167.594 104.505 167.566 104.776 167.566C105.355 167.566 105.835 167.65 106.218 167.818C106.601 167.977 106.904 168.205 107.128 168.504C107.361 168.793 107.525 169.143 107.618 169.554C107.711 169.965 107.758 170.417 107.758 170.912V175H106.456V171.192C106.456 170.744 106.423 170.361 106.358 170.044C106.302 169.727 106.204 169.47 106.064 169.274C105.924 169.078 105.737 168.938 105.504 168.854C105.271 168.761 104.981 168.714 104.636 168.714C104.496 168.714 104.351 168.723 104.202 168.742C104.053 168.761 103.908 168.784 103.768 168.812C103.637 168.831 103.516 168.854 103.404 168.882C103.301 168.91 103.227 168.933 103.18 168.952V175H101.878ZM114.06 170.814C114.06 172.009 114.233 173.115 114.578 174.132C114.924 175.149 115.432 176.092 116.104 176.96L115.18 177.59C114.452 176.703 113.864 175.686 113.416 174.538C112.978 173.381 112.758 172.139 112.758 170.814C112.758 169.489 112.978 168.252 113.416 167.104C113.864 165.947 114.452 164.925 115.18 164.038L116.104 164.668C115.432 165.536 114.924 166.479 114.578 167.496C114.233 168.513 114.06 169.619 114.06 170.814ZM120.72 175.21C120.085 175.21 119.534 175.112 119.068 174.916C118.601 174.72 118.218 174.454 117.92 174.118C117.621 173.773 117.397 173.367 117.248 172.9C117.108 172.433 117.038 171.929 117.038 171.388V165.298H118.396V171.234C118.396 172.205 118.61 172.909 119.04 173.348C119.469 173.787 120.029 174.006 120.72 174.006C121.065 174.006 121.378 173.955 121.658 173.852C121.947 173.74 122.194 173.572 122.4 173.348C122.605 173.124 122.764 172.839 122.876 172.494C122.988 172.139 123.044 171.719 123.044 171.234V165.298H124.402V171.388C124.402 171.929 124.327 172.433 124.178 172.9C124.038 173.367 123.814 173.773 123.506 174.118C123.207 174.454 122.824 174.72 122.358 174.916C121.9 175.112 121.354 175.21 120.72 175.21ZM128.835 174.034C130.254 174.034 130.963 173.549 130.963 172.578C130.963 172.279 130.898 172.027 130.767 171.822C130.646 171.607 130.478 171.425 130.263 171.276C130.049 171.117 129.801 170.982 129.521 170.87C129.251 170.758 128.961 170.646 128.653 170.534C128.299 170.413 127.963 170.277 127.645 170.128C127.328 169.969 127.053 169.787 126.819 169.582C126.586 169.367 126.399 169.115 126.259 168.826C126.129 168.537 126.063 168.187 126.063 167.776C126.063 166.927 126.353 166.264 126.931 165.788C127.51 165.312 128.308 165.074 129.325 165.074C129.913 165.074 130.445 165.139 130.921 165.27C131.407 165.391 131.761 165.527 131.985 165.676L131.551 166.782C131.355 166.661 131.061 166.544 130.669 166.432C130.287 166.311 129.839 166.25 129.325 166.25C129.064 166.25 128.821 166.278 128.597 166.334C128.373 166.39 128.177 166.474 128.009 166.586C127.841 166.698 127.706 166.843 127.603 167.02C127.51 167.188 127.463 167.389 127.463 167.622C127.463 167.883 127.515 168.103 127.617 168.28C127.72 168.457 127.865 168.616 128.051 168.756C128.238 168.887 128.453 169.008 128.695 169.12C128.947 169.232 129.223 169.344 129.521 169.456C129.941 169.624 130.324 169.792 130.669 169.96C131.024 170.128 131.327 170.329 131.579 170.562C131.841 170.795 132.041 171.075 132.181 171.402C132.321 171.719 132.391 172.107 132.391 172.564C132.391 173.413 132.079 174.067 131.453 174.524C130.837 174.981 129.965 175.21 128.835 175.21C128.453 175.21 128.098 175.182 127.771 175.126C127.454 175.079 127.169 175.023 126.917 174.958C126.665 174.883 126.446 174.809 126.259 174.734C126.082 174.65 125.942 174.58 125.839 174.524L126.245 173.404C126.46 173.525 126.787 173.661 127.225 173.81C127.664 173.959 128.201 174.034 128.835 174.034ZM140.35 175C140.191 174.58 140.042 174.169 139.902 173.768C139.762 173.357 139.617 172.942 139.468 172.522H135.072L134.19 175H132.776C133.149 173.973 133.499 173.026 133.826 172.158C134.152 171.281 134.47 170.45 134.778 169.666C135.095 168.882 135.408 168.135 135.716 167.426C136.024 166.707 136.346 165.998 136.682 165.298H137.928C138.264 165.998 138.586 166.707 138.894 167.426C139.202 168.135 139.51 168.882 139.818 169.666C140.135 170.45 140.457 171.281 140.784 172.158C141.11 173.026 141.46 173.973 141.834 175H140.35ZM139.076 171.402C138.777 170.59 138.478 169.806 138.18 169.05C137.89 168.285 137.587 167.552 137.27 166.852C136.943 167.552 136.63 168.285 136.332 169.05C136.042 169.806 135.753 170.59 135.464 171.402H139.076ZM143.924 170.814C143.924 169.619 143.751 168.513 143.406 167.496C143.06 166.479 142.552 165.536 141.88 164.668L142.804 164.038C143.532 164.925 144.115 165.947 144.554 167.104C145.002 168.252 145.226 169.489 145.226 170.814C145.226 172.139 145.002 173.381 144.554 174.538C144.115 175.686 143.532 176.703 142.804 177.59L141.88 176.96C142.552 176.092 143.06 175.149 143.406 174.132C143.751 173.115 143.924 172.009 143.924 170.814Z" fill="#E7E7E7"/>
<path d="M287 160C281.48 160 277 164.48 277 170C277 175.52 281.48 180 287 180C292.52 180 297 175.52 297 170C297 164.48 292.52 160 287 160ZM287 178C282.58 178 279 174.42 279 170C279 165.58 282.58 162 287 162C291.42 162 295 165.58 295 170C295 174.42 291.42 178 287 178Z" fill="#A6A6A6" fill-opacity="0.2"/>
<path d="M287 175C289.761 175 292 172.761 292 170C292 167.239 289.761 165 287 165C284.239 165 282 167.239 282 170C282 172.761 284.239 175 287 175Z" fill="#A6A6A6" fill-opacity="0.2"/>
<defs>
<filter id="filter0_d_153_273" x="10" y="46" width="64" height="64" filterUnits="userSpaceOnUse" color-interpolation-filters="sRGB">
<feFlood flood-opacity="0" result="BackgroundImageFix"/>
<feColorMatrix in="SourceAlpha" type="matrix" values="0 0 0 0 0 0 0 0 0 0 0 0 0 0 0 0 0 0 127 0" result="hardAlpha"/>
<feOffset dx="2" dy="4"/>
<feGaussianBlur stdDeviation="10"/>
<feColorMatrix type="matrix" values="0 0 0 0 0 0 0 0 0 0 0 0 0 0 0 0 0 0 0.1 0"/>
<feBlend mode="normal" in2="BackgroundImageFix" result="effect1_dropShadow_153_273"/>
<feBlend mode="normal" in="SourceGraphic" in2="effect1_dropShadow_153_273" result="shape"/>
</filter>
<filter id="filter1_d_153_273" x="10" y="94" width="64" height="64" filterUnits="userSpaceOnUse" color-interpolation-filters="sRGB">
<feFlood flood-opacity="0" result="BackgroundImageFix"/>
<feColorMatrix in="SourceAlpha" type="matrix" values="0 0 0 0 0 0 0 0 0 0 0 0 0 0 0 0 0 0 127 0" result="hardAlpha"/>
<feOffset dx="2" dy="4"/>
<feGaussianBlur stdDeviation="10"/>
<feColorMatrix type="matrix" values="0 0 0 0 0 0 0 0 0 0 0 0 0 0 0 0 0 0 0.1 0"/>
<feBlend mode="normal" in2="BackgroundImageFix" result="effect1_dropShadow_153_273"/>
<feBlend mode="normal" in="SourceGraphic" in2="effect1_dropShadow_153_273" result="shape"/>
</filter>
<filter id="filter2_d_153_273" x="10" y="142.037" width="64" height="63.9634" filterUnits="userSpaceOnUse" color-interpolation-filters="sRGB">
<feFlood flood-opacity="0" result="BackgroundImageFix"/>
<feColorMatrix in="SourceAlpha" type="matrix" values="0 0 0 0 0 0 0 0 0 0 0 0 0 0 0 0 0 0 127 0" result="hardAlpha"/>
<feOffset dx="2" dy="4"/>
<feGaussianBlur stdDeviation="10"/>
<feColorMatrix type="matrix" values="0 0 0 0 0 0 0 0 0 0 0 0 0 0 0 0 0 0 0.1 0"/>
<feBlend mode="normal" in2="BackgroundImageFix" result="effect1_dropShadow_153_273"/>
<feBlend mode="normal" in="SourceGraphic" in2="effect1_dropShadow_153_273" result="shape"/>
</filter>
<filter id="filter3_d_153_273" x="27.125" y="159.637" width="12.25" height="9" filterUnits="userSpaceOnUse" color-interpolation-filters="sRGB">
<feFlood flood-opacity="0" result="BackgroundImageFix"/>
<feColorMatrix in="SourceAlpha" type="matrix" values="0 0 0 0 0 0 0 0 0 0 0 0 0 0 0 0 0 0 127 0" result="hardAlpha"/>
<feOffset dy="1"/>
<feColorMatrix type="matrix" values="0 0 0 0 0 0 0 0 0 0 0 0 0 0 0 0 0 0 0.06 0"/>
<feBlend mode="normal" in2="BackgroundImageFix" result="effect1_dropShadow_153_273"/>
<feBlend mode="normal" in="SourceGraphic" in2="effect1_dropShadow_153_273" result="shape"/>
</filter>
<linearGradient id="paint0_linear_153_273" x1="27.125" y1="159.637" x2="27.125" y2="167.637" gradientUnits="userSpaceOnUse">
<stop stop-color="white"/>
<stop offset="1" stop-color="#F0F0F0"/>
</linearGradient>
</defs>
</svg>
